999
Inkscape export via "Better DXF Output" (bob@bobcookdev.com)
  0
SECTION
  2
HEADER
  9
$ACADVER
  1
AC1014
  9
$HANDSEED
  5
FFFF
  0
ENDSEC
  0
SECTION
  2
TABLES
  0
TABLE
  2
VPORT
  5
8
330
0
100
AcDbSymbolTable
 70
     4
  0
VPORT
  5
2E
330
8
100
AcDbSymbolTableRecord
100
AcDbViewportTableRecord
  2
*ACTIVE
 70
     0
 10
0.0
 20
0.0
 11
1.0
 21
1.0
 12
4.25
 22
5.5
 13
0.0
 23
0.0
 14
10.0
 24
10.0
 15
10.0
 25
10.0
 16
0.0
 26
0.0
 36
1.0
 17
0.0
 27
0.0
 37
0.0
 40
11
 41
1.24
 42
50.0
 43
0.0
 44
0.0
 50
0.0
 51
0.0
 71
     0
 72
   100
 73
     1
 74
     3
 75
     0
 76
     0
 77
     0
 78
     0
  0
ENDTAB
  0
TABLE
  2
LTYPE
  5
5
330
0
100
AcDbSymbolTable
 70
     1
  0
LTYPE
  5
14
330
5
100
AcDbSymbolTableRecord
100
AcDbLinetypeTableRecord
  2
BYBLOCK
 70
     0
  3

 72
    65
 73
     0
 40
0.0
  0
LTYPE
  5
15
330
5
100
AcDbSymbolTableRecord
100
AcDbLinetypeTableRecord
  2
BYLAYER
 70
     0
  3

 72
    65
 73
     0
 40
0.0
  0
LTYPE
  5
16
330
5
100
AcDbSymbolTableRecord
100
AcDbLinetypeTableRecord
  2
CONTINUOUS
 70
     0
  3
Solid line
 72
    65
 73
     0
 40
0.0
  0
ENDTAB
  0
TABLE
  2
LAYER
  5
2
330
0
100
AcDbSymbolTable
 70
1
  0
LAYER
  5
10
330
2
100
AcDbSymbolTableRecord
100
AcDbLayerTableRecord
  2
0
 70
     0
 62
     7
  6
CONTINUOUS
  0
ENDTAB
  0
TABLE
  2
STYLE
  5
3
330
0
100
AcDbSymbolTable
 70
     1
  0
STYLE
  5
11
330
3
100
AcDbSymbolTableRecord
100
AcDbTextStyleTableRecord
  2
STANDARD
 70
     0
 40
0.0
 41
1.0
 50
0.0
 71
     0
 42
2.5
  3
txt
  4

  0
ENDTAB
  0
TABLE
  2
VIEW
  5
6
330
0
100
AcDbSymbolTable
 70
     0
  0
ENDTAB
  0
TABLE
  2
UCS
  5
7
330
0
100
AcDbSymbolTable
 70
     0
  0
ENDTAB
  0
TABLE
  2
APPID
  5
9
330
0
100
AcDbSymbolTable
 70
     2
  0
APPID
  5
12
330
9
100
AcDbSymbolTableRecord
100
AcDbRegAppTableRecord
  2
ACAD
 70
     0
  0
ENDTAB
  0
TABLE
  2
DIMSTYLE
  5
A
330
0
100
AcDbSymbolTable
 70
     1
  0
DIMSTYLE
105
27
330
A
100
AcDbSymbolTableRecord
100
AcDbDimStyleTableRecord
  2
ISO-25
 70
     0
  3

  4

  5

  6

  7

 40
1.0
 41
2.5
 42
0.625
 43
3.75
 44
1.25
 45
0.0
 46
0.0
 47
0.0
 48
0.0
140
2.5
141
2.5
142
0.0
143
0.03937007874016
144
1.0
145
0.0
146
1.0
147
0.625
 71
     0
 72
     0
 73
     0
 74
     0
 75
     0
 76
     0
 77
     1
 78
     8
170
     0
171
     3
172
     1
173
     0
174
     0
175
     0
176
     0
177
     0
178
     0
270
     2
271
     2
272
     2
273
     2
274
     3
340
11
275
     0
280
     0
281
     0
282
     0
283
     0
284
     8
285
     0
286
     0
287
     3
288
     0
  0
ENDTAB
  0
TABLE
  2
BLOCK_RECORD
  5
1
330
0
100
AcDbSymbolTable
 70
     1
  0
BLOCK_RECORD
  5
1F
330
1
100
AcDbSymbolTableRecord
100
AcDbBlockTableRecord
  2
*MODEL_SPACE
  0
BLOCK_RECORD
  5
1B
330
1
100
AcDbSymbolTableRecord
100
AcDbBlockTableRecord
  2
*PAPER_SPACE
  0
ENDTAB
  0
ENDSEC
  0
SECTION
  2
BLOCKS
  0
BLOCK
  5
20
330
1F
100
AcDbEntity
  8
0
100
AcDbBlockBegin
  2
*MODEL_SPACE
 70
     0
 10
0.0
 20
0.0
 30
0.0
  3
*MODEL_SPACE
  1

  0
ENDBLK
  5
21
330
1F
100
AcDbEntity
  8
0
100
AcDbBlockEnd
  0
BLOCK
  5
1C
330
1B
100
AcDbEntity
 67
     1
  8
0
100
AcDbBlockBegin
  2
*PAPER_SPACE
  1

  0
ENDBLK
  5
1D
330
1B
100
AcDbEntity
 67
     1
  8
0
100
AcDbBlockEnd
  0
ENDSEC
  0
SECTION
  2
ENTITIES
0
LINE
8
Layer 1
62
4
5
100
100
AcDbEntity
100
AcDbLine
10
98.451619
20
-97.220179
30
0.0
11
98.383324
21
-97.226202
31
0.0
0
LINE
8
Layer 1
62
4
5
101
100
AcDbEntity
100
AcDbLine
10
98.383324
20
-97.226202
30
0.0
11
98.318997
21
-97.243987
31
0.0
0
LINE
8
Layer 1
62
4
5
102
100
AcDbEntity
100
AcDbLine
10
98.318997
20
-97.243987
30
0.0
11
98.258544
21
-97.273111
31
0.0
0
LINE
8
Layer 1
62
4
5
103
100
AcDbEntity
100
AcDbLine
10
98.258544
20
-97.273111
30
0.0
11
98.201869
21
-97.313147
31
0.0
0
LINE
8
Layer 1
62
4
5
104
100
AcDbEntity
100
AcDbLine
10
98.201869
20
-97.313147
30
0.0
11
98.148874
21
-97.363672
31
0.0
0
LINE
8
Layer 1
62
4
5
105
100
AcDbEntity
100
AcDbLine
10
98.148874
20
-97.363672
30
0.0
11
98.099463
21
-97.424261
31
0.0
0
LINE
8
Layer 1
62
4
5
106
100
AcDbEntity
100
AcDbLine
10
98.099463
20
-97.424261
30
0.0
11
98.053541
21
-97.494488
31
0.0
0
LINE
8
Layer 1
62
4
5
107
100
AcDbEntity
100
AcDbLine
10
98.053541
20
-97.494488
30
0.0
11
98.011011
21
-97.573929
31
0.0
0
LINE
8
Layer 1
62
4
5
108
100
AcDbEntity
100
AcDbLine
10
98.011011
20
-97.573929
30
0.0
11
97.971777
21
-97.662159
31
0.0
0
LINE
8
Layer 1
62
4
5
109
100
AcDbEntity
100
AcDbLine
10
97.971777
20
-97.662159
30
0.0
11
97.935743
21
-97.758753
31
0.0
0
LINE
8
Layer 1
62
4
5
10a
100
AcDbEntity
100
AcDbLine
10
97.935743
20
-97.758753
30
0.0
11
97.902812
21
-97.863287
31
0.0
0
LINE
8
Layer 1
62
4
5
10b
100
AcDbEntity
100
AcDbLine
10
97.902812
20
-97.863287
30
0.0
11
97.872888
21
-97.975335
31
0.0
0
LINE
8
Layer 1
62
4
5
10c
100
AcDbEntity
100
AcDbLine
10
97.872888
20
-97.975335
30
0.0
11
97.845876
21
-98.094473
31
0.0
0
LINE
8
Layer 1
62
4
5
10d
100
AcDbEntity
100
AcDbLine
10
97.845876
20
-98.094473
30
0.0
11
97.821678
21
-98.220276
31
0.0
0
LINE
8
Layer 1
62
4
5
10e
100
AcDbEntity
100
AcDbLine
10
97.821678
20
-98.220276
30
0.0
11
97.800198
21
-98.352320
31
0.0
0
LINE
8
Layer 1
62
4
5
10f
100
AcDbEntity
100
AcDbLine
10
97.800198
20
-98.352320
30
0.0
11
97.781341
21
-98.490179
31
0.0
0
LINE
8
Layer 1
62
4
5
110
100
AcDbEntity
100
AcDbLine
10
97.781341
20
-98.490179
30
0.0
11
97.765002
21
-98.633188
31
0.0
0
LINE
8
Layer 1
62
4
5
111
100
AcDbEntity
100
AcDbLine
10
97.765002
20
-98.633188
30
0.0
11
97.751017
21
-98.779787
31
0.0
0
LINE
8
Layer 1
62
4
5
112
100
AcDbEntity
100
AcDbLine
10
97.751017
20
-98.779787
30
0.0
11
97.739207
21
-98.928207
31
0.0
0
LINE
8
Layer 1
62
4
5
113
100
AcDbEntity
100
AcDbLine
10
97.739207
20
-98.928207
30
0.0
11
97.729392
21
-99.076680
31
0.0
0
LINE
8
Layer 1
62
4
5
114
100
AcDbEntity
100
AcDbLine
10
97.729392
20
-99.076680
30
0.0
11
97.721394
21
-99.223438
31
0.0
0
LINE
8
Layer 1
62
4
5
115
100
AcDbEntity
100
AcDbLine
10
97.721394
20
-99.223438
30
0.0
11
97.715032
21
-99.366712
31
0.0
0
LINE
8
Layer 1
62
4
5
116
100
AcDbEntity
100
AcDbLine
10
97.715032
20
-99.366712
30
0.0
11
97.710128
21
-99.504733
31
0.0
0
LINE
8
Layer 1
62
4
5
117
100
AcDbEntity
100
AcDbLine
10
97.710128
20
-99.504733
30
0.0
11
97.706501
21
-99.635734
31
0.0
0
LINE
8
Layer 1
62
4
5
118
100
AcDbEntity
100
AcDbLine
10
97.706501
20
-99.635734
30
0.0
11
97.703973
21
-99.757946
31
0.0
0
LINE
8
Layer 1
62
4
5
119
100
AcDbEntity
100
AcDbLine
10
97.703973
20
-99.757946
30
0.0
11
97.702365
21
-99.869600
31
0.0
0
LINE
8
Layer 1
62
4
5
11a
100
AcDbEntity
100
AcDbLine
10
97.702365
20
-99.869600
30
0.0
11
97.701495
21
-99.968929
31
0.0
0
LINE
8
Layer 1
62
4
5
11b
100
AcDbEntity
100
AcDbLine
10
97.701495
20
-99.968929
30
0.0
11
97.701187
21
-100.054163
31
0.0
0
LINE
8
Layer 1
62
4
5
11c
100
AcDbEntity
100
AcDbLine
10
97.701187
20
-100.054163
30
0.0
11
97.701259
21
-100.123535
31
0.0
0
LINE
8
Layer 1
62
4
5
11d
100
AcDbEntity
100
AcDbLine
10
97.701259
20
-100.123535
30
0.0
11
97.701532
21
-100.175275
31
0.0
0
LINE
8
Layer 1
62
4
5
11e
100
AcDbEntity
100
AcDbLine
10
97.701532
20
-100.175275
30
0.0
11
97.701828
21
-100.207616
31
0.0
0
LINE
8
Layer 1
62
4
5
11f
100
AcDbEntity
100
AcDbLine
10
97.701828
20
-100.207616
30
0.0
11
97.701966
21
-100.218790
31
0.0
0
LINE
8
Layer 1
62
4
5
120
100
AcDbEntity
100
AcDbLine
10
97.701966
20
-100.218790
30
0.0
11
97.701415
21
-100.218790
31
0.0
0
LINE
8
Layer 1
62
4
5
121
100
AcDbEntity
100
AcDbLine
10
97.701415
20
-100.218790
30
0.0
11
97.700864
21
-100.218790
31
0.0
0
LINE
8
Layer 1
62
4
5
122
100
AcDbEntity
100
AcDbLine
10
97.700864
20
-100.218790
30
0.0
11
97.700313
21
-100.218790
31
0.0
0
LINE
8
Layer 1
62
4
5
123
100
AcDbEntity
100
AcDbLine
10
97.700313
20
-100.218790
30
0.0
11
97.699762
21
-100.218790
31
0.0
0
LINE
8
Layer 1
62
4
5
124
100
AcDbEntity
100
AcDbLine
10
97.699762
20
-100.218790
30
0.0
11
97.699210
21
-100.218790
31
0.0
0
LINE
8
Layer 1
62
4
5
125
100
AcDbEntity
100
AcDbLine
10
97.699210
20
-100.218790
30
0.0
11
97.698659
21
-100.218790
31
0.0
0
LINE
8
Layer 1
62
4
5
126
100
AcDbEntity
100
AcDbLine
10
97.698659
20
-100.218790
30
0.0
11
97.698108
21
-100.218790
31
0.0
0
LINE
8
Layer 1
62
4
5
127
100
AcDbEntity
100
AcDbLine
10
97.698108
20
-100.218790
30
0.0
11
97.697557
21
-100.218790
31
0.0
0
LINE
8
Layer 1
62
4
5
128
100
AcDbEntity
100
AcDbLine
10
97.697557
20
-100.218790
30
0.0
11
97.697006
21
-100.218790
31
0.0
0
LINE
8
Layer 1
62
4
5
129
100
AcDbEntity
100
AcDbLine
10
97.697006
20
-100.218790
30
0.0
11
97.696454
21
-100.218790
31
0.0
0
LINE
8
Layer 1
62
4
5
12a
100
AcDbEntity
100
AcDbLine
10
97.696454
20
-100.218790
30
0.0
11
97.695903
21
-100.218790
31
0.0
0
LINE
8
Layer 1
62
4
5
12b
100
AcDbEntity
100
AcDbLine
10
97.695903
20
-100.218790
30
0.0
11
97.695352
21
-100.218790
31
0.0
0
LINE
8
Layer 1
62
4
5
12c
100
AcDbEntity
100
AcDbLine
10
97.695352
20
-100.218790
30
0.0
11
97.694801
21
-100.218790
31
0.0
0
LINE
8
Layer 1
62
4
5
12d
100
AcDbEntity
100
AcDbLine
10
97.694801
20
-100.218790
30
0.0
11
97.694249
21
-100.218790
31
0.0
0
LINE
8
Layer 1
62
4
5
12e
100
AcDbEntity
100
AcDbLine
10
97.694249
20
-100.218790
30
0.0
11
97.693698
21
-100.218790
31
0.0
0
LINE
8
Layer 1
62
4
5
12f
100
AcDbEntity
100
AcDbLine
10
97.693698
20
-100.218790
30
0.0
11
97.693147
21
-100.218790
31
0.0
0
LINE
8
Layer 1
62
4
5
130
100
AcDbEntity
100
AcDbLine
10
97.693147
20
-100.218790
30
0.0
11
97.693009
21
-100.229963
31
0.0
0
LINE
8
Layer 1
62
4
5
131
100
AcDbEntity
100
AcDbLine
10
97.693009
20
-100.229963
30
0.0
11
97.692713
21
-100.262304
31
0.0
0
LINE
8
Layer 1
62
4
5
132
100
AcDbEntity
100
AcDbLine
10
97.692713
20
-100.262304
30
0.0
11
97.692439
21
-100.314045
31
0.0
0
LINE
8
Layer 1
62
4
5
133
100
AcDbEntity
100
AcDbLine
10
97.692439
20
-100.314045
30
0.0
11
97.692367
21
-100.383416
31
0.0
0
LINE
8
Layer 1
62
4
5
134
100
AcDbEntity
100
AcDbLine
10
97.692367
20
-100.383416
30
0.0
11
97.692676
21
-100.468650
31
0.0
0
LINE
8
Layer 1
62
4
5
135
100
AcDbEntity
100
AcDbLine
10
97.692676
20
-100.468650
30
0.0
11
97.693545
21
-100.567979
31
0.0
0
LINE
8
Layer 1
62
4
5
136
100
AcDbEntity
100
AcDbLine
10
97.693545
20
-100.567979
30
0.0
11
97.695154
21
-100.679633
31
0.0
0
LINE
8
Layer 1
62
4
5
137
100
AcDbEntity
100
AcDbLine
10
97.695154
20
-100.679633
30
0.0
11
97.697682
21
-100.801845
31
0.0
0
LINE
8
Layer 1
62
4
5
138
100
AcDbEntity
100
AcDbLine
10
97.697682
20
-100.801845
30
0.0
11
97.701308
21
-100.932846
31
0.0
0
LINE
8
Layer 1
62
4
5
139
100
AcDbEntity
100
AcDbLine
10
97.701308
20
-100.932846
30
0.0
11
97.706213
21
-101.070867
31
0.0
0
LINE
8
Layer 1
62
4
5
13a
100
AcDbEntity
100
AcDbLine
10
97.706213
20
-101.070867
30
0.0
11
97.712575
21
-101.214141
31
0.0
0
LINE
8
Layer 1
62
4
5
13b
100
AcDbEntity
100
AcDbLine
10
97.712575
20
-101.214141
30
0.0
11
97.720573
21
-101.360899
31
0.0
0
LINE
8
Layer 1
62
4
5
13c
100
AcDbEntity
100
AcDbLine
10
97.720573
20
-101.360899
30
0.0
11
97.730388
21
-101.509372
31
0.0
0
LINE
8
Layer 1
62
4
5
13d
100
AcDbEntity
100
AcDbLine
10
97.730388
20
-101.509372
30
0.0
11
97.742198
21
-101.657792
31
0.0
0
LINE
8
Layer 1
62
4
5
13e
100
AcDbEntity
100
AcDbLine
10
97.742198
20
-101.657792
30
0.0
11
97.756183
21
-101.804391
31
0.0
0
LINE
8
Layer 1
62
4
5
13f
100
AcDbEntity
100
AcDbLine
10
97.756183
20
-101.804391
30
0.0
11
97.772522
21
-101.947401
31
0.0
0
LINE
8
Layer 1
62
4
5
140
100
AcDbEntity
100
AcDbLine
10
97.772522
20
-101.947401
30
0.0
11
97.791379
21
-102.085259
31
0.0
0
LINE
8
Layer 1
62
4
5
141
100
AcDbEntity
100
AcDbLine
10
97.791379
20
-102.085259
30
0.0
11
97.812858
21
-102.217303
31
0.0
0
LINE
8
Layer 1
62
4
5
142
100
AcDbEntity
100
AcDbLine
10
97.812858
20
-102.217303
30
0.0
11
97.837056
21
-102.343106
31
0.0
0
LINE
8
Layer 1
62
4
5
143
100
AcDbEntity
100
AcDbLine
10
97.837056
20
-102.343106
30
0.0
11
97.864069
21
-102.462244
31
0.0
0
LINE
8
Layer 1
62
4
5
144
100
AcDbEntity
100
AcDbLine
10
97.864069
20
-102.462244
30
0.0
11
97.893992
21
-102.574293
31
0.0
0
LINE
8
Layer 1
62
4
5
145
100
AcDbEntity
100
AcDbLine
10
97.893992
20
-102.574293
30
0.0
11
97.926923
21
-102.678826
31
0.0
0
LINE
8
Layer 1
62
4
5
146
100
AcDbEntity
100
AcDbLine
10
97.926923
20
-102.678826
30
0.0
11
97.962958
21
-102.775421
31
0.0
0
LINE
8
Layer 1
62
4
5
147
100
AcDbEntity
100
AcDbLine
10
97.962958
20
-102.775421
30
0.0
11
98.002192
21
-102.863651
31
0.0
0
LINE
8
Layer 1
62
4
5
148
100
AcDbEntity
100
AcDbLine
10
98.002192
20
-102.863651
30
0.0
11
98.044722
21
-102.943092
31
0.0
0
LINE
8
Layer 1
62
4
5
149
100
AcDbEntity
100
AcDbLine
10
98.044722
20
-102.943092
30
0.0
11
98.090644
21
-103.013319
31
0.0
0
LINE
8
Layer 1
62
4
5
14a
100
AcDbEntity
100
AcDbLine
10
98.090644
20
-103.013319
30
0.0
11
98.140054
21
-103.073907
31
0.0
0
LINE
8
Layer 1
62
4
5
14b
100
AcDbEntity
100
AcDbLine
10
98.140054
20
-103.073907
30
0.0
11
98.193049
21
-103.124432
31
0.0
0
LINE
8
Layer 1
62
4
5
14c
100
AcDbEntity
100
AcDbLine
10
98.193049
20
-103.124432
30
0.0
11
98.249725
21
-103.164468
31
0.0
0
LINE
8
Layer 1
62
4
5
14d
100
AcDbEntity
100
AcDbLine
10
98.249725
20
-103.164468
30
0.0
11
98.310178
21
-103.193592
31
0.0
0
LINE
8
Layer 1
62
4
5
14e
100
AcDbEntity
100
AcDbLine
10
98.310178
20
-103.193592
30
0.0
11
98.374504
21
-103.211378
31
0.0
0
LINE
8
Layer 1
62
4
5
14f
100
AcDbEntity
100
AcDbLine
10
98.374504
20
-103.211378
30
0.0
11
98.442800
21
-103.217400
31
0.0
0
LINE
8
Layer 1
62
4
5
150
100
AcDbEntity
100
AcDbLine
10
98.442800
20
-103.217400
30
0.0
11
98.625054
21
-103.208208
31
0.0
0
LINE
8
Layer 1
62
4
5
151
100
AcDbEntity
100
AcDbLine
10
98.625054
20
-103.208208
30
0.0
11
98.796963
21
-103.181465
31
0.0
0
LINE
8
Layer 1
62
4
5
152
100
AcDbEntity
100
AcDbLine
10
98.796963
20
-103.181465
30
0.0
11
98.958751
21
-103.138423
31
0.0
0
LINE
8
Layer 1
62
4
5
153
100
AcDbEntity
100
AcDbLine
10
98.958751
20
-103.138423
30
0.0
11
99.110639
21
-103.080334
31
0.0
0
LINE
8
Layer 1
62
4
5
154
100
AcDbEntity
100
AcDbLine
10
99.110639
20
-103.080334
30
0.0
11
99.252849
21
-103.008450
31
0.0
0
LINE
8
Layer 1
62
4
5
155
100
AcDbEntity
100
AcDbLine
10
99.252849
20
-103.008450
30
0.0
11
99.385603
21
-102.924021
31
0.0
0
LINE
8
Layer 1
62
4
5
156
100
AcDbEntity
100
AcDbLine
10
99.385603
20
-102.924021
30
0.0
11
99.509124
21
-102.828301
31
0.0
0
LINE
8
Layer 1
62
4
5
157
100
AcDbEntity
100
AcDbLine
10
99.509124
20
-102.828301
30
0.0
11
99.623634
21
-102.722539
31
0.0
0
LINE
8
Layer 1
62
4
5
158
100
AcDbEntity
100
AcDbLine
10
99.623634
20
-102.722539
30
0.0
11
99.729355
21
-102.607989
31
0.0
0
LINE
8
Layer 1
62
4
5
159
100
AcDbEntity
100
AcDbLine
10
99.729355
20
-102.607989
30
0.0
11
99.826509
21
-102.485901
31
0.0
0
LINE
8
Layer 1
62
4
5
15a
100
AcDbEntity
100
AcDbLine
10
99.826509
20
-102.485901
30
0.0
11
99.915317
21
-102.357527
31
0.0
0
LINE
8
Layer 1
62
4
5
15b
100
AcDbEntity
100
AcDbLine
10
99.915317
20
-102.357527
30
0.0
11
99.996004
21
-102.224119
31
0.0
0
LINE
8
Layer 1
62
4
5
15c
100
AcDbEntity
100
AcDbLine
10
99.996004
20
-102.224119
30
0.0
11
100.068790
21
-102.086928
31
0.0
0
LINE
8
Layer 1
62
4
5
15d
100
AcDbEntity
100
AcDbLine
10
100.068790
20
-102.086928
30
0.0
11
100.133897
21
-101.947207
31
0.0
0
LINE
8
Layer 1
62
4
5
15e
100
AcDbEntity
100
AcDbLine
10
100.133897
20
-101.947207
30
0.0
11
100.191549
21
-101.806207
31
0.0
0
LINE
8
Layer 1
62
4
5
15f
100
AcDbEntity
100
AcDbLine
10
100.191549
20
-101.806207
30
0.0
11
100.241966
21
-101.665179
31
0.0
0
LINE
8
Layer 1
62
4
5
160
100
AcDbEntity
100
AcDbLine
10
100.241966
20
-101.665179
30
0.0
11
100.285443
21
-101.525339
31
0.0
0
LINE
8
Layer 1
62
4
5
161
100
AcDbEntity
100
AcDbLine
10
100.285443
20
-101.525339
30
0.0
11
100.322459
21
-101.387697
31
0.0
0
LINE
8
Layer 1
62
4
5
162
100
AcDbEntity
100
AcDbLine
10
100.322459
20
-101.387697
30
0.0
11
100.353520
21
-101.253195
31
0.0
0
LINE
8
Layer 1
62
4
5
163
100
AcDbEntity
100
AcDbLine
10
100.353520
20
-101.253195
30
0.0
11
100.379129
21
-101.122774
31
0.0
0
LINE
8
Layer 1
62
4
5
164
100
AcDbEntity
100
AcDbLine
10
100.379129
20
-101.122774
30
0.0
11
100.399792
21
-100.997376
31
0.0
0
LINE
8
Layer 1
62
4
5
165
100
AcDbEntity
100
AcDbLine
10
100.399792
20
-100.997376
30
0.0
11
100.416011
21
-100.877942
31
0.0
0
LINE
8
Layer 1
62
4
5
166
100
AcDbEntity
100
AcDbLine
10
100.416011
20
-100.877942
30
0.0
11
100.428293
21
-100.765414
31
0.0
0
LINE
8
Layer 1
62
4
5
167
100
AcDbEntity
100
AcDbLine
10
100.428293
20
-100.765414
30
0.0
11
100.437140
21
-100.660734
31
0.0
0
LINE
8
Layer 1
62
4
5
168
100
AcDbEntity
100
AcDbLine
10
100.437140
20
-100.660734
30
0.0
11
100.443057
21
-100.564843
31
0.0
0
LINE
8
Layer 1
62
4
5
169
100
AcDbEntity
100
AcDbLine
10
100.443057
20
-100.564843
30
0.0
11
100.446549
21
-100.478682
31
0.0
0
LINE
8
Layer 1
62
4
5
16a
100
AcDbEntity
100
AcDbLine
10
100.446549
20
-100.478682
30
0.0
11
100.448121
21
-100.403194
31
0.0
0
LINE
8
Layer 1
62
4
5
16b
100
AcDbEntity
100
AcDbLine
10
100.448121
20
-100.403194
30
0.0
11
100.448276
21
-100.339319
31
0.0
0
LINE
8
Layer 1
62
4
5
16c
100
AcDbEntity
100
AcDbLine
10
100.448276
20
-100.339319
30
0.0
11
100.447519
21
-100.288000
31
0.0
0
LINE
8
Layer 1
62
4
5
16d
100
AcDbEntity
100
AcDbLine
10
100.447519
20
-100.288000
30
0.0
11
100.446354
21
-100.250178
31
0.0
0
LINE
8
Layer 1
62
4
5
16e
100
AcDbEntity
100
AcDbLine
10
100.446354
20
-100.250178
30
0.0
11
100.445284
21
-100.226793
31
0.0
0
LINE
8
Layer 1
62
4
5
16f
100
AcDbEntity
100
AcDbLine
10
100.445284
20
-100.226793
30
0.0
11
100.444814
21
-100.218790
31
0.0
0
LINE
8
Layer 1
62
4
5
170
100
AcDbEntity
100
AcDbLine
10
100.444814
20
-100.218790
30
0.0
11
100.445282
21
-100.210786
31
0.0
0
LINE
8
Layer 1
62
4
5
171
100
AcDbEntity
100
AcDbLine
10
100.445282
20
-100.210786
30
0.0
11
100.446352
21
-100.187401
31
0.0
0
LINE
8
Layer 1
62
4
5
172
100
AcDbEntity
100
AcDbLine
10
100.446352
20
-100.187401
30
0.0
11
100.447517
21
-100.149579
31
0.0
0
LINE
8
Layer 1
62
4
5
173
100
AcDbEntity
100
AcDbLine
10
100.447517
20
-100.149579
30
0.0
11
100.448277
21
-100.098259
31
0.0
0
LINE
8
Layer 1
62
4
5
174
100
AcDbEntity
100
AcDbLine
10
100.448277
20
-100.098259
30
0.0
11
100.448122
21
-100.034385
31
0.0
0
LINE
8
Layer 1
62
4
5
175
100
AcDbEntity
100
AcDbLine
10
100.448122
20
-100.034385
30
0.0
11
100.446550
21
-99.958897
31
0.0
0
LINE
8
Layer 1
62
4
5
176
100
AcDbEntity
100
AcDbLine
10
100.446550
20
-99.958897
30
0.0
11
100.443058
21
-99.872737
31
0.0
0
LINE
8
Layer 1
62
4
5
177
100
AcDbEntity
100
AcDbLine
10
100.443058
20
-99.872737
30
0.0
11
100.437140
21
-99.776845
31
0.0
0
LINE
8
Layer 1
62
4
5
178
100
AcDbEntity
100
AcDbLine
10
100.437140
20
-99.776845
30
0.0
11
100.428293
21
-99.672165
31
0.0
0
LINE
8
Layer 1
62
4
5
179
100
AcDbEntity
100
AcDbLine
10
100.428293
20
-99.672165
30
0.0
11
100.416012
21
-99.559637
31
0.0
0
LINE
8
Layer 1
62
4
5
17a
100
AcDbEntity
100
AcDbLine
10
100.416012
20
-99.559637
30
0.0
11
100.399793
21
-99.440203
31
0.0
0
LINE
8
Layer 1
62
4
5
17b
100
AcDbEntity
100
AcDbLine
10
100.399793
20
-99.440203
30
0.0
11
100.379130
21
-99.314805
31
0.0
0
LINE
8
Layer 1
62
4
5
17c
100
AcDbEntity
100
AcDbLine
10
100.379130
20
-99.314805
30
0.0
11
100.353521
21
-99.184384
31
0.0
0
LINE
8
Layer 1
62
4
5
17d
100
AcDbEntity
100
AcDbLine
10
100.353521
20
-99.184384
30
0.0
11
100.322460
21
-99.049882
31
0.0
0
LINE
8
Layer 1
62
4
5
17e
100
AcDbEntity
100
AcDbLine
10
100.322460
20
-99.049882
30
0.0
11
100.285443
21
-98.912241
31
0.0
0
LINE
8
Layer 1
62
4
5
17f
100
AcDbEntity
100
AcDbLine
10
100.285443
20
-98.912241
30
0.0
11
100.241966
21
-98.772401
31
0.0
0
LINE
8
Layer 1
62
4
5
180
100
AcDbEntity
100
AcDbLine
10
100.241966
20
-98.772401
30
0.0
11
100.191647
21
-98.631373
31
0.0
0
LINE
8
Layer 1
62
4
5
181
100
AcDbEntity
100
AcDbLine
10
100.191647
20
-98.631373
30
0.0
11
100.134276
21
-98.490372
31
0.0
0
LINE
8
Layer 1
62
4
5
182
100
AcDbEntity
100
AcDbLine
10
100.134276
20
-98.490372
30
0.0
11
100.069603
21
-98.350651
31
0.0
0
LINE
8
Layer 1
62
4
5
183
100
AcDbEntity
100
AcDbLine
10
100.069603
20
-98.350651
30
0.0
11
99.997381
21
-98.213460
31
0.0
0
LINE
8
Layer 1
62
4
5
184
100
AcDbEntity
100
AcDbLine
10
99.997381
20
-98.213460
30
0.0
11
99.917362
21
-98.080052
31
0.0
0
LINE
8
Layer 1
62
4
5
185
100
AcDbEntity
100
AcDbLine
10
99.917362
20
-98.080052
30
0.0
11
99.829298
21
-97.951679
31
0.0
0
LINE
8
Layer 1
62
4
5
186
100
AcDbEntity
100
AcDbLine
10
99.829298
20
-97.951679
30
0.0
11
99.732941
21
-97.829591
31
0.0
0
LINE
8
Layer 1
62
4
5
187
100
AcDbEntity
100
AcDbLine
10
99.732941
20
-97.829591
30
0.0
11
99.628043
21
-97.715040
31
0.0
0
LINE
8
Layer 1
62
4
5
188
100
AcDbEntity
100
AcDbLine
10
99.628043
20
-97.715040
30
0.0
11
99.514356
21
-97.609279
31
0.0
0
LINE
8
Layer 1
62
4
5
189
100
AcDbEntity
100
AcDbLine
10
99.514356
20
-97.609279
30
0.0
11
99.391632
21
-97.513558
31
0.0
0
LINE
8
Layer 1
62
4
5
18a
100
AcDbEntity
100
AcDbLine
10
99.391632
20
-97.513558
30
0.0
11
99.259622
21
-97.429129
31
0.0
0
LINE
8
Layer 1
62
4
5
18b
100
AcDbEntity
100
AcDbLine
10
99.259622
20
-97.429129
30
0.0
11
99.118080
21
-97.357245
31
0.0
0
LINE
8
Layer 1
62
4
5
18c
100
AcDbEntity
100
AcDbLine
10
99.118080
20
-97.357245
30
0.0
11
98.966756
21
-97.299156
31
0.0
0
LINE
8
Layer 1
62
4
5
18d
100
AcDbEntity
100
AcDbLine
10
98.966756
20
-97.299156
30
0.0
11
98.805404
21
-97.256114
31
0.0
0
LINE
8
Layer 1
62
4
5
18e
100
AcDbEntity
100
AcDbLine
10
98.805404
20
-97.256114
30
0.0
11
98.633774
21
-97.229371
31
0.0
0
LINE
8
Layer 1
62
4
5
18f
100
AcDbEntity
100
AcDbLine
10
98.633774
20
-97.229371
30
0.0
11
98.451619
21
-97.220179
31
0.0
0
LINE
8
Layer 1
62
4
5
190
100
AcDbEntity
100
AcDbLine
10
98.451619
20
-97.220179
30
0.0
11
98.451619
21
-97.220179
31
0.0
  0
ENDSEC
  0
SECTION
  2
OBJECTS
  0
DICTIONARY
  5
C
330
0
100
AcDbDictionary
  3
ACAD_GROUP
350
D
  3
ACAD_MLINESTYLE
350
17
  0
DICTIONARY
  5
D
330
C
100
AcDbDictionary
  0
DICTIONARY
  5
1A
330
C
100
AcDbDictionary
  0
DICTIONARY
  5
17
330
C
100
AcDbDictionary
  3
STANDARD
350
18
  0
DICTIONARY
  5
19
330
C
100
AcDbDictionary
  0
ENDSEC
  0
EOF
